<svg xmlns="http://www.w3.org/2000/svg" aria-hidden="true" style="position:absolute;width:0;height:0;overflow:hidden"><defs><symbol id="icon-burger-tablet" viewBox="0 0 32 32"><path d="M3.407 6.922c-.865.452-.862 1.675.006 2.166l.294.165h24.586l.294-.165c.868-.491.871-1.714.006-2.166l-.285-.149H3.692l-.285.149zm0 8c-.865.452-.862 1.675.006 2.166l.294.165h24.586l.294-.165c.868-.491.871-1.714.006-2.166l-.285-.149H3.692l-.285.149zm0 8c-.865.452-.862 1.675.006 2.166l.294.165h24.586l.294-.165c.868-.491.871-1.714.006-2.166l-.285-.149H3.692l-.285.149z"/></symbol><symbol id="icon-burger-mobile" viewBox="0 0 32 32"><path d="M3.478 6.993a1.129 1.129 0 0 0-.576 1.278L2.9 8.263c.079.336.302.609.598.755l.007.003.255.125h24.48l.255-.125c.303-.149.525-.421.603-.75l.002-.008a1.124 1.124 0 0 0-.575-1.269l-.006-.003-.231-.112H3.707l-.229.113zm0 8a1.129 1.129 0 0 0-.576 1.278l-.002-.008c.079.336.302.609.598.755l.007.003.255.125h24.48l.255-.125c.303-.149.525-.421.603-.75l.002-.008a1.124 1.124 0 0 0-.575-1.269l-.006-.003-.231-.112H3.707l-.229.113zm0 8a1.129 1.129 0 0 0-.576 1.278l-.002-.008c.079.336.302.609.598.755l.007.003.255.125h24.48l.255-.125c.303-.149.525-.421.603-.75l.002-.008a1.124 1.124 0 0 0-.575-1.269l-.006-.003-.231-.112H3.707l-.229.113z"/></symbol><symbol id="icon-scroll" viewBox="0 0 32 32"><path d="M16.945 17.866a1.33 1.33 0 0 1-1.89 0l-6.109-6.119a1.334 1.334 0 1 0-1.892 1.879l.001.001 6.119 6.121c.724.723 1.723 1.169 2.826 1.169s2.103-.447 2.826-1.169l6.121-6.121a1.334 1.334 0 1 0-1.894-1.88l-6.106 6.119z"/></symbol><symbol id="icon-close-modal" viewBox="0 0 32 32"><path d="M23.494 6.623c-.124.065-1.727 1.613-3.837 3.706-1.994 1.975-3.645 3.585-3.668 3.578a343.37 343.37 0 0 1-3.672-3.605l.01.009C8.872 6.89 8.696 6.724 8.426 6.644c-.356-.106-.493-.106-.849 0-.409.121-.816.537-.938.957a1.31 1.31 0 0 0 .099 1.033l-.003-.007c.076.144 1.434 1.555 3.661 3.804l3.542 3.577-3.6 3.61c-2.806 2.813-3.628 3.665-3.721 3.865-.243.516-.115 1.039.374 1.529.49.489 1.012.617 1.529.374.199-.095 1.053-.916 3.869-3.725l3.615-3.604 3.559 3.553c2.471 2.468 3.631 3.59 3.793 3.671a1.438 1.438 0 0 0 1.891-.579l.004-.007c.143-.256.164-.345.163-.694-.001-.313-.029-.452-.125-.64-.086-.164-1.233-1.351-3.674-3.796l-3.551-3.556 3.568-3.606c2.137-2.159 3.628-3.708 3.716-3.857.294-.506.148-1.088-.403-1.594-.487-.451-.998-.564-1.45-.327z"/></symbol><symbol id="icon-spoon" viewBox="0 0 32 32"><path d="M15.373 13.835a5.895 5.895 0 0 1-1.345-3.751c0-4.941 5.921-9.877 11.842-9.877a5.923 5.923 0 0 1 5.921 5.922c0 5.922-4.934 11.845-9.881 11.845a5.887 5.887 0 0 1-3.75-1.345L3.579 31.213a1.977 1.977 0 0 1-2.794-2.795l14.587-14.584z"/></symbol><symbol id="icon-coin" viewBox="0 0 32 32"><path d="M16 .762C7.619.762.762 7.619.762 16S7.619 31.238 16 31.238 31.238 24.381 31.238 16 24.381.762 16 .762zm0 27.429c-6.705 0-12.19-5.486-12.19-12.19S9.296 3.81 16 3.81c6.705 0 12.19 5.486 12.19 12.191s-5.486 12.19-12.191 12.19z"/><path d="M17.981 14.476h-3.962c-.762 0-1.371-.61-1.371-1.371s.61-1.371 1.371-1.371h5.638c.914 0 1.524-.61 1.524-1.524s-.61-1.524-1.524-1.524h-2.133V7.315c0-.914-.61-1.524-1.524-1.524s-1.524.61-1.524 1.524v1.371h-.457c-2.438 0-4.419 1.981-4.419 4.419s1.981 4.419 4.419 4.419h3.809c.762 0 1.371.61 1.371 1.371s-.61 1.371-1.371 1.371H12.19c-.914 0-1.524.61-1.524 1.524s.61 1.524 1.524 1.524h2.286v1.371c0 .914.61 1.524 1.524 1.524s1.524-.61 1.524-1.524v-1.371h.457c2.438 0 4.419-1.981 4.419-4.419s-1.981-4.419-4.419-4.419z"/></symbol><symbol id="icon-chokolate" viewBox="0 0 32 32"><path d="m13.597.456 8.306 8.316.088-.088a.948.948 0 0 1 1.306-.015l.963.963c.337.337.348.85.092 1.207l-.004.008-.158.212 6.797 6.797a1.539 1.539 0 0 1 0 2.185L20.581 30.447a1.539 1.539 0 0 1-2.185 0l-4.907-4.907a.918.918 0 0 1-.675.35.93.93 0 0 1-.71-.272l-2.869-2.869a.948.948 0 0 1-.015-1.306l.007-.008.085-.084-8.306-8.306a1.539 1.539 0 0 1 0-2.185L11.411.455a1.539 1.539 0 0 1 2.185 0v.001zm7.263 9.357-1.938-1.937a.655.655 0 0 0-.938 0l-3.95 3.95a.664.664 0 0 0-.146.731.68.68 0 0 0 .146.217l1.93 1.93.673-.673-1.727-1.727 3.542-3.553 1.731 1.737.676-.676zm-5.602 5.597-1.935-1.935a.655.655 0 0 0-.938 0l-3.961 3.961a.653.653 0 0 0 0 .938l1.933 1.933.68-.68-1.732-1.726 3.553-3.542 1.726 1.725.675-.674zM8.079 6.834l3.95 3.95a.644.644 0 0 0 .938-.011l3.95-3.95a.643.643 0 0 0 .199-.463h.011a.674.674 0 0 0-.199-.474l-3.95-3.95a.667.667 0 0 0-.948 0L8.08 5.897a.653.653 0 0 0 0 .938zm-5.594 5.594 3.95 3.95a.653.653 0 0 0 .938 0l3.95-3.95a.643.643 0 0 0 .199-.474h.011a.655.655 0 0 0-.199-.474l-3.95-3.95a.655.655 0 0 0-.938 0l-3.961 3.961a.653.653 0 0 0 0 .938zm7.65 9.66 2.606 2.607 10.633-14.389-.723-.723-12.516 12.504z"/><path d="m13.597.456 8.306 8.316.088-.088a.948.948 0 0 1 1.306-.015l.963.963c.337.337.348.85.092 1.207l-.004.008-.158.212 6.797 6.797a1.539 1.539 0 0 1 0 2.185L20.581 30.447a1.539 1.539 0 0 1-2.185 0l-4.907-4.907a.918.918 0 0 1-.675.35.93.93 0 0 1-.71-.272l-2.869-2.869a.948.948 0 0 1-.015-1.306l.007-.008.085-.084-8.306-8.306a1.539 1.539 0 0 1 0-2.185L11.411.455a1.539 1.539 0 0 1 2.185 0v.001zm7.263 9.357-1.938-1.937a.655.655 0 0 0-.938 0l-3.95 3.95a.664.664 0 0 0-.146.731.68.68 0 0 0 .146.217l1.93 1.93.673-.673-1.727-1.727 3.542-3.553 1.731 1.737.676-.676zm-5.602 5.597-1.935-1.935a.655.655 0 0 0-.938 0l-3.961 3.961a.653.653 0 0 0 0 .938l1.933 1.933.68-.68-1.732-1.726 3.553-3.542 1.726 1.725.675-.674zM8.079 6.834l3.95 3.95a.644.644 0 0 0 .938-.011l3.95-3.95a.643.643 0 0 0 .199-.463h.011a.674.674 0 0 0-.199-.474l-3.95-3.95a.667.667 0 0 0-.948 0L8.08 5.897a.653.653 0 0 0 0 .938zm-5.594 5.594 3.95 3.95a.653.653 0 0 0 .938 0l3.95-3.95a.643.643 0 0 0 .199-.474h.011a.655.655 0 0 0-.199-.474l-3.95-3.95a.655.655 0 0 0-.938 0l-3.961 3.961a.653.653 0 0 0 0 .938zm7.65 9.66 2.606 2.607 10.633-14.389-.723-.723-12.516 12.504z"/></symbol><symbol id="icon-twitter" viewBox="0 0 32 32"><path d="M19.367 3.134a7.307 7.307 0 0 1 7.476 1.38 13.219 13.219 0 0 0 3.055-1.603 1.332 1.332 0 0 1 2.064 1.405 11.622 11.622 0 0 1-2.66 5.032c.02.215.03.431.031.648V10c0 8.133-3.916 14.1-9.54 17.094-5.592 2.976-12.739 2.943-19.107-.595a1.333 1.333 0 0 1 .701-2.498c2.251.09 4.479-.359 6.505-1.293-4.788-2.975-6.4-7.326-6.72-11.072-.18-2.109.045-4.023.311-5.402.133-.692.278-1.258.392-1.654.057-.199.106-.356.142-.466l.043-.13.013-.038.004-.012.001-.004.001-.002 1.255.451-1.254-.452a1.334 1.334 0 0 1 2.345-.315c1.278 1.82 3.592 4.138 5.416 5.057a12.872 12.872 0 0 0 4.825 1.339 7.304 7.304 0 0 1 4.701-6.874zM4.001 7.304a17.088 17.088 0 0 0-.173 4.106c.302 3.533 1.918 7.611 7.38 10.039a1.333 1.333 0 0 1 .208 2.322 16.854 16.854 0 0 1-4.802 2.251c4.227 1.077 8.463.563 11.927-1.281 4.708-2.506 8.126-7.539 8.126-14.737a4.673 4.673 0 0 0-.083-.859 1.335 1.335 0 0 1 .373-1.2c.297-.293.572-.605.824-.934-.302.111-.608.214-.917.307a1.335 1.335 0 0 1-1.391-.402 4.638 4.638 0 0 0-7.34.439 4.654 4.654 0 0 0-.801 2.668v1.351c0 .723-.576 1.314-1.299 1.333a15.55 15.55 0 0 1-7.393-1.655c-1.577-.794-3.269-2.26-4.641-3.748z"/></symbol><symbol id="icon-twitter-mobile" viewBox="0 0 32 32"><path d="M19.415 3.258a7.17 7.17 0 0 1 7.399 1.408 13.322 13.322 0 0 0 3.161-1.647 1.2 1.2 0 0 1 1.858 1.265 11.491 11.491 0 0 1-2.668 5.018c.023.23.035.462.036.694V10c0 8.087-3.891 14.007-9.469 16.976C14.183 29.93 7.084 29.9.752 26.382a1.2 1.2 0 0 1 .63-2.248 14.316 14.316 0 0 0 6.791-1.411c-2.108-1.269-3.605-2.805-4.631-4.468-1.32-2.139-1.817-4.417-1.907-6.469-.09-2.048.224-3.901.555-5.234.166-.669.338-1.214.471-1.596.066-.191.123-.342.164-.448l.049-.124.015-.036.006-.015.001-.001c0-.001.001-.001 1.105.469l-1.104-.47a1.201 1.201 0 0 1 2.086-.22c1.322 1.882 2.981 3.764 4.799 4.678a13.021 13.021 0 0 0 5.019 1.363v-.104a7.174 7.174 0 0 1 4.615-6.79zM4.461 7.371c-.27 1.158-.501 2.674-.429 4.31.077 1.748.496 3.603 1.552 5.314 1.049 1.701 2.771 3.331 5.57 4.575a1.201 1.201 0 0 1 .187 2.09 16.703 16.703 0 0 1-5.238 2.362c4.414 1.25 8.874.766 12.5-1.164 4.754-2.53 8.196-7.61 8.197-14.855a4.858 4.858 0 0 0-.085-.884 1.203 1.203 0 0 1 .336-1.08c.41-.404.779-.845 1.103-1.315-.435.175-.878.33-1.328.466a1.2 1.2 0 0 1-1.252-.362 4.769 4.769 0 0 0-5.304-1.327 4.773 4.773 0 0 0-3.071 4.524v1.349a1.2 1.2 0 0 1-1.169 1.2 15.419 15.419 0 0 1-7.329-1.64C7.069 10.112 5.64 8.768 4.46 7.372z"/></symbol><symbol id="icon-instagram" viewBox="0 0 32 32"><path d="M9.333 4A5.333 5.333 0 0 0 4 9.333v13.333a5.333 5.333 0 0 0 5.333 5.333h13.333a5.333 5.333 0 0 0 5.333-5.333V9.333A5.333 5.333 0 0 0 22.666 4H9.333zm-8 5.333a8 8 0 0 1 8-8h13.333a8 8 0 0 1 8 8v13.333a8 8 0 0 1-8 8H9.333a8 8 0 0 1-8-8V9.333z"/><path d="M16.645 11.986a4.003 4.003 0 0 0-4.536 4.592 4.001 4.001 0 0 0 7.5 1.207 4 4 0 0 0-2.964-5.799zm-3.658-1.961a6.663 6.663 0 0 1 7.784 1.204 6.661 6.661 0 0 1 1.204 7.784 6.668 6.668 0 0 1-11.872-6.067 6.665 6.665 0 0 1 2.884-2.92zM22 8.667c0-.736.597-1.333 1.333-1.333h.013a1.333 1.333 0 0 1 0 2.666h-.013A1.333 1.333 0 0 1 22 8.667z"/></symbol><symbol id="icon-instagram-mobile" viewBox="0 0 32 32"><path d="M9.334 3.757a5.576 5.576 0 0 0-5.576 5.576v13.333a5.576 5.576 0 0 0 5.576 5.576h13.333a5.576 5.576 0 0 0 5.576-5.576V9.333a5.576 5.576 0 0 0-5.576-5.576H9.334zM1.576 9.333a7.758 7.758 0 0 1 7.758-7.758h13.333a7.758 7.758 0 0 1 7.758 7.758v13.333a7.758 7.758 0 0 1-7.758 7.758H9.334a7.758 7.758 0 0 1-7.758-7.758V9.333z"/><path d="M16.68 11.746a4.24 4.24 0 0 0-4.811 4.87 4.245 4.245 0 0 0 6.096 3.116 4.245 4.245 0 0 0 2.289-4.411 4.241 4.241 0 0 0-3.575-3.574zm-3.581-1.506A6.42 6.42 0 0 1 20.6 11.4a6.425 6.425 0 0 1-1.654 10.28 6.426 6.426 0 0 1-8.627-8.627 6.418 6.418 0 0 1 2.78-2.814zM22.242 8.667a1.09 1.09 0 0 1 1.091-1.091h.015a1.091 1.091 0 0 1 0 2.182h-.015a1.091 1.091 0 0 1-1.091-1.091z"/></symbol><symbol id="icon-logo-mobile" viewBox="0 0 32 32"><path d="M3.944 20.076 14.721 2.652l.64-.674 8.236 5.491.056 3.314 2.01 3.28-8.88 14.077-12.839-8.063z"/><path d="M14.11 1.455a1.353 1.353 0 0 1 1.877-.444l9.626 6.015a1.39 1.39 0 0 1 .449 1.898c-.883 1.448-.818 2.116-.646 2.517.243.566.934 1.215 2.475 2.178a1.39 1.39 0 0 1 .449 1.898l-9.454 15.507a1.353 1.353 0 0 1-1.877.444L2.823 22.604a1.39 1.39 0 0 1-.449-1.898L14.11 1.456zm-2.3 9.041-2.484 4.075 4.767 2.979 2.484-4.075-4.767-2.979zm6.195.637-4.767-2.979 2.484-4.075 4.767 2.979-2.484 4.075zm.898 3.795-2.484 4.075 4.767 2.979 2.484-4.075-4.767-2.979zm6.194.637-4.767-2.979 2.484-4.075.28.175c-.578 1.322-.716 2.599-.182 3.841.462 1.075 1.362 1.925 2.406 2.674l-.222.364zm-5.339 8.759-4.767-2.979-2.484 4.075 4.767 2.979 2.484-4.075zm-9.577-.357 2.484-4.075-4.767-2.979-2.484 4.075 4.767 2.979z"/></symbol><symbol id="icon-logo-desktop" viewBox="0 0 32 32"><path d="M3.944 20.076 14.721 2.652l.64-.674 8.236 5.491.056 3.314 2.01 3.28-8.88 14.077-12.839-8.063z"/><path d="M14.142 1.475a1.316 1.316 0 0 1 1.825-.432l9.626 6.015c.625.39.82 1.216.437 1.845-.885 1.452-.828 2.135-.649 2.552.249.578.95 1.233 2.49 2.195.625.39.82 1.216.437 1.845l-9.454 15.507c-.383.629-1.2.822-1.825.432L2.843 22.57a1.351 1.351 0 0 1-.437-1.845l11.736-19.25zm-2.345 8.969-2.524 4.14 4.831 3.019 2.524-4.14-4.831-3.019zm6.22.742-4.831-3.019 2.524-4.14 4.831 3.019-2.524 4.14zm.873 3.69-2.524 4.14 4.831 3.019 2.524-4.14-4.831-3.019zm6.22.742-4.831-3.019 2.524-4.14.34.213c-.586 1.326-.727 2.602-.195 3.841.462 1.076 1.369 1.927 2.423 2.679l-.26.427zm-5.3 8.693-4.831-3.019-2.524 4.14 4.831 3.019 2.524-4.14zm-9.617-.292 2.524-4.14-4.831-3.019L5.362 21l4.831 3.019z"/></symbol><symbol id="icon-mastercard" viewBox="0 0 51 32"><path fill="#ed0006" d="M25.6 26.935a14.53 14.53 0 0 1-9.496 3.518c-8.086 0-14.641-6.593-14.641-14.726S8.018 1.001 16.104 1.001c3.624 0 6.94 1.324 9.496 3.518a14.532 14.532 0 0 1 9.497-3.518c8.086 0 14.64 6.593 14.64 14.726s-6.555 14.726-14.64 14.726c-3.624 0-6.94-1.324-9.497-3.518z" style="fill:var(--color1, #ed0006)"/><path fill="#f9a000" d="M25.6 26.935c3.148-2.701 5.144-6.72 5.144-11.209S28.748 7.219 25.6 4.518A14.53 14.53 0 0 1 35.097 1c8.086 0 14.64 6.593 14.64 14.726s-6.555 14.726-14.64 14.726c-3.624 0-6.94-1.324-9.497-3.518z" style="fill:var(--color2, #f9a000)"/><path fill="#ff5e00" d="M25.6 26.935c3.148-2.701 5.144-6.72 5.144-11.208S28.748 7.22 25.6 4.519c-3.148 2.701-5.144 6.72-5.144 11.208s1.996 8.507 5.144 11.208z" style="fill:var(--color3, #ff5e00)"/></symbol><symbol id="icon-ukraine" viewBox="0 0 43 32"><path fill="gold" d="M42.442.078H.323v31.344h42.119V.078z" style="fill:var(--color1, #ffd700)"/><path fill="#0057b7" d="M.324.078h42.119V15.75H.324V.078z" style="fill:var(--color2, #0057b7)"/></symbol><symbol id="icon-Icon-burger" viewBox="0 0 45 32"><path d="M2.709 1.27c-.613.09-1.018.37-1.266.877-.187.379-.21.506-.203 1.101.011.987.266 1.446.982 1.778l.354.163h39.648l.354-.163c.718-.331.971-.79.982-1.782.008-.616-.013-.718-.218-1.118-.197-.386-.282-.47-.667-.667l-.44-.226-19.568-.01c-10.763-.006-19.744.016-19.958.048zm-.245 12.837c-.875.267-1.221.808-1.221 1.909 0 .971.226 1.426.885 1.781l.299.16h39.946l.299-.16c.659-.355.885-.81.885-1.781s-.226-1.426-.885-1.781l-.299-.16-19.861-.013c-10.923-.006-19.946.013-20.048.045zm.152 12.779c-.528.104-.971.422-1.189.853-.158.314-.187.48-.192 1.05-.003.611.019.722.222 1.118.197.386.282.47.667.667l.44.226h39.67l.44-.226c.386-.197.47-.282.667-.667.205-.4.226-.502.218-1.118-.011-.992-.264-1.451-.982-1.782l-.354-.163-19.637-.011c-11.037-.006-19.784.018-19.971.054z"/></symbol><symbol id="icon-Vector" viewBox="0 0 28 32"><path fill="none" stroke="#fd9222" stroke-linecap="round" stroke-linejoin="round" stroke-width="2.667" d="M20.301 23.88 6.116 15.016m3.912-6.417 14.185 8.864M9.297 25.864l11.736-19.25m4.81 8.175c-3.04-1.899-4.234-3.384-2.278-6.592l-9.626-6.015-11.736 19.25 14.186 8.864 9.454-15.507z" style="stroke:var(--color1, #fd9222)"/></symbol><symbol id="icon-x-close" viewBox="0 0 32 32"><path fill="none" stroke="#fff" stroke-linecap="round" stroke-linejoin="round" stroke-width="2.667" d="M24 8 8 24M8 8l16 16" style="stroke:var(--color1, #fff)"/></symbol><symbol id="icon-flag-of-ukraine" viewBox="0 0 40 32"><path fill="gold" d="M40.209.495H.307V30.19h39.902V.495z" style="fill:var(--color1, #ffd700)"/><path fill="#0057b7" d="M.307.495h39.902v14.847H.307V.495z" style="fill:var(--color2, #0057b7)"/></symbol></defs></svg>