<svg aria-hidden="true" style="position: absolute; width: 0; height: 0; overflow: hidden;" version="1.1" xmlns="http://www.w3.org/2000/svg" xmlns:xlink="http://www.w3.org/1999/xlink">
<defs>
<symbol id="icon-burger-tablet" viewBox="0 0 32 32">
<path d="M3.407 6.922c-0.865 0.452-0.862 1.675 0.006 2.166l0.294 0.165h24.586l0.294-0.165c0.868-0.491 0.871-1.714 0.006-2.166l-0.285-0.149h-24.616l-0.285 0.149zM3.407 14.922c-0.865 0.452-0.862 1.675 0.006 2.166l0.294 0.165h24.586l0.294-0.165c0.868-0.491 0.871-1.714 0.006-2.166l-0.285-0.149h-24.616l-0.285 0.149zM3.407 22.922c-0.865 0.452-0.862 1.675 0.006 2.166l0.294 0.165h24.586l0.294-0.165c0.868-0.491 0.871-1.714 0.006-2.166l-0.285-0.149h-24.616l-0.285 0.149z"></path>
</symbol>
<symbol id="icon-burger-mobile" viewBox="0 0 32 32">
<path d="M3.478 6.993c-0.365 0.191-0.61 0.568-0.61 1.001 0 0.096 0.012 0.189 0.034 0.277l-0.002-0.008c0.079 0.336 0.302 0.609 0.598 0.755l0.007 0.003 0.255 0.125h24.48l0.255-0.125c0.303-0.149 0.525-0.421 0.603-0.75l0.002-0.008c0.021-0.081 0.033-0.174 0.033-0.27 0-0.435-0.247-0.812-0.608-0.999l-0.006-0.003-0.231-0.112h-24.581l-0.229 0.113zM3.478 14.993c-0.365 0.191-0.61 0.568-0.61 1.001 0 0.096 0.012 0.189 0.034 0.277l-0.002-0.008c0.079 0.336 0.302 0.609 0.598 0.755l0.007 0.003 0.255 0.125h24.48l0.255-0.125c0.303-0.149 0.525-0.421 0.603-0.75l0.002-0.008c0.021-0.081 0.033-0.174 0.033-0.27 0-0.435-0.247-0.812-0.608-0.999l-0.006-0.003-0.231-0.112h-24.581l-0.229 0.113zM3.478 22.993c-0.365 0.191-0.61 0.568-0.61 1.001 0 0.096 0.012 0.189 0.034 0.277l-0.002-0.008c0.079 0.336 0.302 0.609 0.598 0.755l0.007 0.003 0.255 0.125h24.48l0.255-0.125c0.303-0.149 0.525-0.421 0.603-0.75l0.002-0.008c0.021-0.081 0.033-0.174 0.033-0.27 0-0.435-0.247-0.812-0.608-0.999l-0.006-0.003-0.231-0.112h-24.581l-0.229 0.113z"></path>
</symbol>
<symbol id="icon-scroll" viewBox="0 0 32 32">
<path  d="M16.945 17.866c-0.242 0.243-0.576 0.393-0.945 0.393s-0.704-0.15-0.945-0.393l-0-0-6.109-6.119c-0.244-0.264-0.592-0.428-0.979-0.428-0.737 0-1.334 0.597-1.334 1.334 0 0.384 0.162 0.729 0.421 0.973l0.001 0.001 6.119 6.121c0.724 0.723 1.723 1.169 2.826 1.169s2.103-0.447 2.826-1.169l6.121-6.121c0.239-0.241 0.387-0.573 0.387-0.94 0-0.737-0.597-1.334-1.334-1.334-0.37 0-0.705 0.151-0.947 0.394l-0 0-6.106 6.119z"></path>
</symbol>
<symbol id="icon-close-modal" viewBox="0 0 32 32">
<path d="M23.494 6.623c-0.124 0.065-1.727 1.613-3.837 3.706-1.994 1.975-3.645 3.585-3.668 3.578-1.294-1.252-2.487-2.424-3.672-3.605l0.010 0.009c-3.455-3.421-3.631-3.587-3.901-3.667-0.356-0.106-0.493-0.106-0.849 0-0.409 0.121-0.816 0.537-0.938 0.957-0.040 0.12-0.063 0.258-0.063 0.401 0 0.229 0.059 0.444 0.162 0.632l-0.003-0.007c0.076 0.144 1.434 1.555 3.661 3.804l3.542 3.577-3.6 3.61c-2.806 2.813-3.628 3.665-3.721 3.865-0.243 0.516-0.115 1.039 0.374 1.529 0.49 0.489 1.012 0.617 1.529 0.374 0.199-0.095 1.053-0.916 3.869-3.725l3.615-3.604 3.559 3.553c2.471 2.468 3.631 3.59 3.793 3.671 0.186 0.094 0.406 0.15 0.639 0.15 0.537 0 1.005-0.294 1.252-0.729l0.004-0.007c0.143-0.256 0.164-0.345 0.163-0.694-0.001-0.313-0.029-0.452-0.125-0.64-0.086-0.164-1.233-1.351-3.674-3.796l-3.551-3.556 3.568-3.606c2.137-2.159 3.628-3.708 3.716-3.857 0.294-0.506 0.148-1.088-0.403-1.594-0.487-0.451-0.998-0.564-1.45-0.327z"></path>
</symbol>
<symbol id="icon-spoon" viewBox="0 0 32 32">
<path d="M15.373 13.835c-0.894-1.086-1.345-2.418-1.345-3.751 0-4.941 5.921-9.877 11.842-9.877 3.269 0 5.921 2.653 5.921 5.922 0 5.922-4.934 11.845-9.881 11.845-1.332 0-2.665-0.45-3.75-1.345l-14.581 14.584c-0.771 0.771-2.023 0.771-2.794 0s-0.771-2.024 0-2.795l14.587-14.584z"></path>
</symbol>
<symbol id="icon-coin" viewBox="0 0 32 32">
<path d="M16 0.762c-8.381 0-15.238 6.857-15.238 15.238s6.857 15.238 15.238 15.238c8.381 0 15.238-6.857 15.238-15.238s-6.857-15.238-15.238-15.238zM16 28.191c-6.705 0-12.19-5.486-12.19-12.19s5.486-12.191 12.19-12.191c6.705 0 12.19 5.486 12.19 12.191s-5.486 12.19-12.191 12.19z"></path>
<path d="M17.981 14.476h-3.962c-0.762 0-1.371-0.61-1.371-1.371s0.61-1.371 1.371-1.371h5.638c0.914 0 1.524-0.61 1.524-1.524s-0.61-1.524-1.524-1.524h-2.133v-1.371c0-0.914-0.61-1.524-1.524-1.524s-1.524 0.61-1.524 1.524v1.371h-0.457c-2.438 0-4.419 1.981-4.419 4.419s1.981 4.419 4.419 4.419h3.809c0.762 0 1.371 0.61 1.371 1.371s-0.61 1.371-1.371 1.371h-5.638c-0.914 0-1.524 0.61-1.524 1.524s0.61 1.524 1.524 1.524h2.286v1.371c0 0.914 0.61 1.524 1.524 1.524s1.524-0.61 1.524-1.524v-1.371h0.457c2.438 0 4.419-1.981 4.419-4.419s-1.981-4.419-4.419-4.419z"></path>
</symbol>
<symbol id="icon-chokolate" viewBox="0 0 32 32">
<path d="M13.597 0.456l8.306 8.316 0.088-0.088c0.174-0.17 0.407-0.267 0.65-0.27s0.478 0.089 0.656 0.255l0.963 0.963c0.337 0.337 0.348 0.85 0.092 1.207l-0.004 0.008-0.158 0.212 6.797 6.797c0.607 0.607 0.607 1.578 0 2.185l-10.406 10.406c-0.607 0.607-1.578 0.607-2.185 0l-4.907-4.907c-0.081 0.103-0.184 0.187-0.3 0.247s-0.244 0.095-0.375 0.103c-0.131 0.007-0.262-0.013-0.384-0.060s-0.234-0.119-0.326-0.212l-2.869-2.869c-0.17-0.174-0.267-0.407-0.27-0.65s0.089-0.478 0.255-0.656l0.007-0.008 0.085-0.084-8.306-8.306c-0.607-0.607-0.607-1.578 0-2.185l10.405-10.405c0.607-0.607 1.578-0.607 2.185 0v0.001zM20.86 9.813l-1.938-1.937c-0.061-0.063-0.134-0.113-0.214-0.147s-0.167-0.052-0.255-0.052c-0.087 0-0.174 0.018-0.255 0.052s-0.154 0.084-0.214 0.147l-3.95 3.95c-0.063 0.062-0.112 0.136-0.146 0.217s-0.051 0.169-0.051 0.257 0.017 0.176 0.051 0.257c0.034 0.081 0.084 0.155 0.146 0.217l1.93 1.93 0.673-0.673-1.727-1.727 3.542-3.553 1.731 1.737 0.676-0.676zM15.258 15.41l-1.935-1.935c-0.061-0.063-0.134-0.113-0.214-0.147s-0.167-0.052-0.255-0.052c-0.088 0-0.174 0.018-0.255 0.052s-0.153 0.084-0.214 0.147l-3.961 3.961c-0.265 0.254-0.265 0.673 0 0.938l1.933 1.933 0.68-0.68-1.732-1.726 3.553-3.542 1.726 1.725 0.675-0.674zM8.079 6.834l3.95 3.95c0.265 0.265 0.684 0.265 0.938-0.011l3.95-3.95c0.063-0.060 0.113-0.132 0.147-0.211s0.052-0.165 0.052-0.252h0.011c0-0.166-0.066-0.342-0.199-0.474l-3.95-3.95c-0.062-0.063-0.136-0.113-0.217-0.147s-0.169-0.051-0.257-0.051c-0.088 0-0.176 0.018-0.257 0.051s-0.155 0.084-0.217 0.147l-3.95 3.961c-0.265 0.254-0.265 0.673 0 0.938zM2.485 12.428l3.95 3.95c0.265 0.265 0.684 0.265 0.938 0l3.95-3.95c0.064-0.061 0.115-0.135 0.149-0.216s0.051-0.17 0.050-0.258h0.011c0-0.177-0.066-0.342-0.199-0.474l-3.95-3.95c-0.061-0.063-0.134-0.113-0.214-0.147s-0.167-0.052-0.255-0.052c-0.087 0-0.174 0.018-0.255 0.052s-0.153 0.084-0.214 0.147l-3.961 3.961c-0.265 0.254-0.265 0.673 0 0.938zM10.135 22.088l2.606 2.607 10.633-14.389-0.723-0.723-12.516 12.504z"></path>
<path d="M13.597 0.456l8.306 8.316 0.088-0.088c0.174-0.17 0.407-0.267 0.65-0.27s0.478 0.089 0.656 0.255l0.963 0.963c0.337 0.337 0.348 0.85 0.092 1.207l-0.004 0.008-0.158 0.212 6.797 6.797c0.607 0.607 0.607 1.578 0 2.185l-10.406 10.406c-0.607 0.607-1.578 0.607-2.185 0l-4.907-4.907c-0.081 0.103-0.184 0.187-0.3 0.247s-0.244 0.095-0.375 0.103c-0.131 0.007-0.262-0.013-0.384-0.060s-0.234-0.119-0.326-0.212l-2.869-2.869c-0.17-0.174-0.267-0.407-0.27-0.65s0.089-0.478 0.255-0.656l0.007-0.008 0.085-0.084-8.306-8.306c-0.607-0.607-0.607-1.578 0-2.185l10.405-10.405c0.607-0.607 1.578-0.607 2.185 0v0.001zM20.86 9.813l-1.938-1.937c-0.061-0.063-0.134-0.113-0.214-0.147s-0.167-0.052-0.255-0.052c-0.087 0-0.174 0.018-0.255 0.052s-0.154 0.084-0.214 0.147l-3.95 3.95c-0.063 0.062-0.112 0.136-0.146 0.217s-0.051 0.169-0.051 0.257 0.017 0.176 0.051 0.257c0.034 0.081 0.084 0.155 0.146 0.217l1.93 1.93 0.673-0.673-1.727-1.727 3.542-3.553 1.731 1.737 0.676-0.676zM15.258 15.41l-1.935-1.935c-0.061-0.063-0.134-0.113-0.214-0.147s-0.167-0.052-0.255-0.052c-0.088 0-0.174 0.018-0.255 0.052s-0.153 0.084-0.214 0.147l-3.961 3.961c-0.265 0.254-0.265 0.673 0 0.938l1.933 1.933 0.68-0.68-1.732-1.726 3.553-3.542 1.726 1.725 0.675-0.674zM8.079 6.834l3.95 3.95c0.265 0.265 0.684 0.265 0.938-0.011l3.95-3.95c0.063-0.060 0.113-0.132 0.147-0.211s0.052-0.165 0.052-0.252h0.011c0-0.166-0.066-0.342-0.199-0.474l-3.95-3.95c-0.062-0.063-0.136-0.113-0.217-0.147s-0.169-0.051-0.257-0.051c-0.088 0-0.176 0.018-0.257 0.051s-0.155 0.084-0.217 0.147l-3.95 3.961c-0.265 0.254-0.265 0.673 0 0.938zM2.485 12.428l3.95 3.95c0.265 0.265 0.684 0.265 0.938 0l3.95-3.95c0.064-0.061 0.115-0.135 0.149-0.216s0.051-0.17 0.050-0.258h0.011c0-0.177-0.066-0.342-0.199-0.474l-3.95-3.95c-0.061-0.063-0.134-0.113-0.214-0.147s-0.167-0.052-0.255-0.052c-0.087 0-0.174 0.018-0.255 0.052s-0.153 0.084-0.214 0.147l-3.961 3.961c-0.265 0.254-0.265 0.673 0 0.938zM10.135 22.088l2.606 2.607 10.633-14.389-0.723-0.723-12.516 12.504z"></path>
</symbol>
<symbol id="icon-twitter" viewBox="0 0 32 32">
<path d="M19.367 3.134c1.398-0.534 2.927-0.625 4.379-0.262 1.155 0.289 2.217 0.854 3.097 1.642 1.083-0.398 2.11-0.937 3.055-1.603 0.454-0.32 1.059-0.325 1.519-0.013s0.677 0.878 0.545 1.418c-0.457 1.875-1.372 3.604-2.66 5.032 0.020 0.215 0.030 0.431 0.031 0.648v0.004c0 8.133-3.916 14.1-9.54 17.094-5.592 2.976-12.739 2.943-19.107-0.595-0.54-0.3-0.803-0.931-0.636-1.526s0.72-0.997 1.337-0.972c2.251 0.090 4.479-0.359 6.505-1.293-4.788-2.975-6.4-7.326-6.72-11.072-0.18-2.109 0.045-4.023 0.311-5.402 0.133-0.692 0.278-1.258 0.392-1.654 0.057-0.199 0.106-0.356 0.142-0.466 0.018-0.055 0.033-0.099 0.043-0.13l0.013-0.038 0.004-0.012 0.001-0.004 0.001-0.002c0-0.001 0-0.001 1.255 0.451l-1.254-0.452c0.169-0.468 0.584-0.804 1.077-0.87s0.982 0.148 1.268 0.555c1.278 1.82 3.592 4.138 5.416 5.057 1.509 0.76 3.149 1.213 4.825 1.339-0.010-1.48 0.43-2.928 1.261-4.152 0.841-1.238 2.041-2.189 3.44-2.722zM4.001 7.304c-0.183 1.143-0.303 2.574-0.173 4.106 0.302 3.533 1.918 7.611 7.38 10.039 0.442 0.197 0.743 0.618 0.787 1.1s-0.179 0.95-0.579 1.222c-1.481 1.005-3.103 1.762-4.802 2.251 4.227 1.077 8.463 0.563 11.927-1.281 4.708-2.506 8.126-7.539 8.126-14.737-0.001-0.288-0.029-0.576-0.083-0.859-0.084-0.437 0.057-0.887 0.373-1.2 0.297-0.293 0.572-0.605 0.824-0.934-0.302 0.111-0.608 0.214-0.917 0.307-0.502 0.151-1.046-0.006-1.391-0.402-0.624-0.717-1.453-1.226-2.375-1.456s-1.893-0.173-2.781 0.166c-0.888 0.339-1.651 0.942-2.184 1.729s-0.813 1.718-0.801 2.668l0 0.018h-0v1.333c0 0.723-0.576 1.314-1.299 1.333-2.563 0.066-5.103-0.502-7.393-1.655-1.577-0.794-3.269-2.26-4.641-3.748z"></path>
</symbol>
<symbol id="icon-twitter-mobile" viewBox="0 0 32 32">
<path d="M19.415 3.258c1.373-0.524 2.874-0.614 4.299-0.257 1.16 0.29 2.224 0.864 3.1 1.665 1.122-0.405 2.185-0.958 3.161-1.647 0.409-0.288 0.953-0.293 1.367-0.011s0.609 0.79 0.491 1.276c-0.456 1.873-1.375 3.598-2.668 5.018 0.023 0.23 0.035 0.462 0.036 0.694v0.004c0 8.087-3.891 14.007-9.469 16.976-5.549 2.954-12.648 2.924-18.98-0.594-0.486-0.27-0.723-0.838-0.573-1.373s0.648-0.897 1.203-0.875c2.356 0.094 4.687-0.396 6.791-1.411-2.108-1.269-3.605-2.805-4.631-4.468-1.32-2.139-1.817-4.417-1.907-6.469-0.090-2.048 0.224-3.901 0.555-5.234 0.166-0.669 0.338-1.214 0.471-1.596 0.066-0.191 0.123-0.342 0.164-0.448 0.021-0.053 0.037-0.095 0.049-0.124l0.015-0.036 0.006-0.015 0.001-0.001c0-0.001 0.001-0.001 1.105 0.469l-1.104-0.47c0.171-0.401 0.545-0.678 0.978-0.724s0.857 0.147 1.108 0.504c1.322 1.882 2.981 3.764 4.799 4.678 1.568 0.789 3.275 1.251 5.019 1.363v-0.104c-0.018-1.466 0.414-2.903 1.238-4.117 0.825-1.216 2.004-2.149 3.377-2.673zM4.461 7.371c-0.27 1.158-0.501 2.674-0.429 4.31 0.077 1.748 0.496 3.603 1.552 5.314 1.049 1.701 2.771 3.331 5.57 4.575 0.398 0.177 0.669 0.556 0.708 0.99s-0.161 0.855-0.521 1.1c-1.607 1.091-3.38 1.886-5.238 2.362 4.414 1.25 8.874 0.766 12.5-1.164 4.754-2.53 8.196-7.61 8.197-14.855-0.001-0.297-0.030-0.592-0.085-0.884-0.075-0.393 0.051-0.798 0.336-1.080 0.41-0.404 0.779-0.845 1.103-1.315-0.435 0.175-0.878 0.33-1.328 0.466-0.452 0.136-0.942-0.005-1.252-0.362-0.642-0.738-1.494-1.261-2.443-1.498s-1.947-0.178-2.861 0.171c-0.914 0.349-1.698 0.97-2.247 1.779s-0.837 1.767-0.824 2.745l0 0.016h-0v1.333c0 0.651-0.518 1.183-1.169 1.2-2.541 0.066-5.059-0.498-7.329-1.64-1.632-0.822-3.061-2.166-4.241-3.562z"></path>
</symbol>
<symbol id="icon-instagram" viewBox="0 0 32 32">
<path d="M9.333 4c-2.946 0-5.333 2.388-5.333 5.333v13.333c0 2.945 2.388 5.333 5.333 5.333h13.333c2.945 0 5.333-2.388 5.333-5.333v-13.333c0-2.946-2.388-5.333-5.333-5.333h-13.333zM1.333 9.333c0-4.418 3.582-8 8-8h13.333c4.418 0 8 3.582 8 8v13.333c0 4.418-3.582 8-8 8h-13.333c-4.418 0-8-3.582-8-8v-13.333z"></path>
<path d="M16.645 11.986c-0.832-0.123-1.682 0.019-2.429 0.406s-1.352 1.001-1.731 1.752c-0.378 0.752-0.51 1.603-0.376 2.434s0.526 1.598 1.121 2.193c0.595 0.595 1.362 0.987 2.193 1.121s1.682 0.002 2.434-0.376c0.752-0.378 1.365-0.984 1.752-1.731s0.53-1.597 0.406-2.429c-0.126-0.849-0.521-1.635-1.128-2.242s-1.393-1.002-2.242-1.128zM12.987 10.025c1.245-0.646 2.661-0.883 4.048-0.677 1.415 0.21 2.725 0.869 3.736 1.881s1.671 2.321 1.881 3.736c0.206 1.387-0.031 2.804-0.677 4.048s-1.668 2.254-2.92 2.885c-1.253 0.63-2.672 0.85-4.056 0.627s-2.663-0.876-3.655-1.868c-0.992-0.991-1.645-2.27-1.868-3.655s-0.003-2.804 0.627-4.056c0.63-1.253 1.64-2.274 2.884-2.92z"></path>
<path d="M22 8.667c0-0.736 0.597-1.333 1.333-1.333h0.013c0.736 0 1.333 0.597 1.333 1.333s-0.597 1.333-1.333 1.333h-0.013c-0.736 0-1.333-0.597-1.333-1.333z"></path>
</symbol>
<symbol id="icon-instagram-mobile" viewBox="0 0 32 32">
<path d="M9.334 3.757c-3.079 0-5.576 2.496-5.576 5.576v13.333c0 3.079 2.496 5.576 5.576 5.576h13.333c3.079 0 5.576-2.496 5.576-5.576v-13.333c0-3.079-2.496-5.576-5.576-5.576h-13.333zM1.576 9.333c0-4.284 3.473-7.758 7.758-7.758h13.333c4.284 0 7.758 3.473 7.758 7.758v13.333c0 4.284-3.473 7.758-7.758 7.758h-13.333c-4.284 0-7.758-3.473-7.758-7.758v-13.333z"></path>
<path d="M16.68 11.746c-0.883-0.131-1.784 0.020-2.576 0.431s-1.434 1.061-1.836 1.858c-0.401 0.797-0.541 1.7-0.399 2.581s0.558 1.695 1.189 2.326 1.445 1.047 2.326 1.189c0.881 0.142 1.784 0.002 2.581-0.399s1.447-1.044 1.858-1.835c0.411-0.792 0.562-1.694 0.431-2.576-0.134-0.9-0.553-1.734-1.197-2.377s-1.477-1.063-2.378-1.197zM13.099 10.24c1.199-0.622 2.564-0.851 3.901-0.652 1.363 0.202 2.626 0.838 3.6 1.812s1.61 2.237 1.812 3.6c0.198 1.337-0.030 2.702-0.652 3.901s-1.607 2.172-2.814 2.779-2.575 0.819-3.909 0.604c-1.334-0.215-2.566-0.845-3.522-1.8s-1.585-2.188-1.8-3.522c-0.215-1.334-0.003-2.702 0.604-3.909s1.58-2.192 2.78-2.814z"></path>
<path d="M22.242 8.667c0-0.603 0.488-1.091 1.091-1.091h0.015c0.602 0 1.091 0.488 1.091 1.091s-0.488 1.091-1.091 1.091h-0.015c-0.602 0-1.091-0.488-1.091-1.091z"></path>
</symbol>
<symbol id="icon-logo-mobile" viewBox="0 0 32 32">
<path d="M3.944 20.076l10.777-17.424 0.64-0.674 8.236 5.491 0.056 3.314 2.010 3.28-8.88 14.077-12.839-8.063z"></path>
<path d="M14.11 1.455c0.394-0.647 1.235-0.846 1.877-0.444l9.626 6.015c0.642 0.401 0.843 1.251 0.449 1.898-0.883 1.448-0.818 2.116-0.646 2.517 0.243 0.566 0.934 1.215 2.475 2.178 0.642 0.401 0.843 1.251 0.449 1.898l-9.454 15.507c-0.394 0.647-1.235 0.846-1.877 0.444l-14.186-8.864c-0.642-0.401-0.843-1.251-0.449-1.898l11.736-19.25zM11.81 10.496l-2.484 4.075 4.767 2.979 2.484-4.075-4.767-2.979zM18.005 11.133l-4.767-2.979 2.484-4.075 4.767 2.979-2.484 4.075zM18.903 14.928l-2.484 4.075 4.767 2.979 2.484-4.075-4.767-2.979zM25.097 15.565l-4.767-2.979 2.484-4.075 0.28 0.175c-0.578 1.322-0.716 2.599-0.182 3.841 0.462 1.075 1.362 1.925 2.406 2.674l-0.222 0.364zM19.758 24.324l-4.767-2.979-2.484 4.075 4.767 2.979 2.484-4.075zM10.181 23.967l2.484-4.075-4.767-2.979-2.484 4.075 4.767 2.979z"></path>
</symbol>
<symbol id="icon-logo-desktop" viewBox="0 0 32 32">
<path d="M3.944 20.076l10.777-17.424 0.64-0.674 8.236 5.491 0.056 3.314 2.010 3.28-8.88 14.077-12.839-8.063z"></path>
<path d="M14.142 1.475c0.383-0.629 1.2-0.822 1.825-0.432l9.626 6.015c0.625 0.39 0.82 1.216 0.437 1.845-0.885 1.452-0.828 2.135-0.649 2.552 0.249 0.578 0.95 1.233 2.49 2.195 0.625 0.39 0.82 1.216 0.437 1.845l-9.454 15.507c-0.383 0.629-1.2 0.822-1.825 0.432l-14.186-8.864c-0.625-0.39-0.82-1.216-0.437-1.845l11.736-19.25zM11.797 10.444l-2.524 4.14 4.831 3.019 2.524-4.14-4.831-3.019zM18.017 11.186l-4.831-3.019 2.524-4.14 4.831 3.019-2.524 4.14zM18.89 14.876l-2.524 4.14 4.831 3.019 2.524-4.14-4.831-3.019zM25.11 15.618l-4.831-3.019 2.524-4.14 0.34 0.213c-0.586 1.326-0.727 2.602-0.195 3.841 0.462 1.076 1.369 1.927 2.423 2.679l-0.26 0.427zM19.81 24.311l-4.831-3.019-2.524 4.14 4.831 3.019 2.524-4.14zM10.193 24.019l2.524-4.14-4.831-3.019-2.524 4.14 4.831 3.019z"></path>
</symbol>
<symbol id="icon-mastercard" viewBox="0 0 51 32">
<path fill="#ed0006" style="fill: var(--color1, #ed0006)" d="M25.6 26.935c-2.556 2.194-5.873 3.518-9.496 3.518-8.086 0-14.641-6.593-14.641-14.726s6.555-14.726 14.641-14.726c3.624 0 6.94 1.324 9.496 3.518 2.557-2.194 5.873-3.518 9.497-3.518 8.086 0 14.64 6.593 14.64 14.726s-6.555 14.726-14.64 14.726c-3.624 0-6.94-1.324-9.497-3.518z"></path>
<path fill="#f9a000" style="fill: var(--color2, #f9a000)" d="M25.6 26.935c3.148-2.701 5.144-6.72 5.144-11.209s-1.996-8.507-5.144-11.208c2.556-2.194 5.873-3.518 9.497-3.518 8.086 0 14.64 6.593 14.64 14.726s-6.555 14.726-14.64 14.726c-3.624 0-6.94-1.324-9.497-3.518z"></path>
<path fill="#ff5e00" style="fill: var(--color3, #ff5e00)" d="M25.6 26.935c3.148-2.701 5.144-6.72 5.144-11.208s-1.996-8.507-5.144-11.208c-3.148 2.701-5.144 6.72-5.144 11.208s1.996 8.507 5.144 11.208z"></path>
</symbol>
<symbol id="icon-ukraine" viewBox="0 0 43 32">
<path fill="#ffd700" style="fill: var(--color1, #ffd700)" d="M42.442 0.078h-42.119v31.344h42.119v-31.344z"></path>
<path fill="#0057b7" style="fill: var(--color2, #0057b7)" d="M0.324 0.078h42.119v15.672h-42.119v-15.672z"></path>
</symbol>
<symbol id="icon-Icon-burger" viewBox="0 0 45 32">
<path d="M2.709 1.27c-0.613 0.090-1.018 0.37-1.266 0.877-0.187 0.379-0.21 0.506-0.203 1.101 0.011 0.987 0.266 1.446 0.982 1.778l0.354 0.163h39.648l0.354-0.163c0.718-0.331 0.971-0.79 0.982-1.782 0.008-0.616-0.013-0.718-0.218-1.118-0.197-0.386-0.282-0.47-0.667-0.667l-0.44-0.226-19.568-0.010c-10.763-0.006-19.744 0.016-19.958 0.048zM2.464 14.107c-0.875 0.267-1.221 0.808-1.221 1.909 0 0.971 0.226 1.426 0.885 1.781l0.299 0.16h39.946l0.299-0.16c0.659-0.355 0.885-0.81 0.885-1.781s-0.226-1.426-0.885-1.781l-0.299-0.16-19.861-0.013c-10.923-0.006-19.946 0.013-20.048 0.045zM2.616 26.886c-0.528 0.104-0.971 0.422-1.189 0.853-0.158 0.314-0.187 0.48-0.192 1.050-0.003 0.611 0.019 0.722 0.222 1.118 0.197 0.386 0.282 0.47 0.667 0.667l0.44 0.226h39.67l0.44-0.226c0.386-0.197 0.47-0.282 0.667-0.667 0.205-0.4 0.226-0.502 0.218-1.118-0.011-0.992-0.264-1.451-0.982-1.782l-0.354-0.163-19.637-0.011c-11.037-0.006-19.784 0.018-19.971 0.054z"></path>
</symbol>
<symbol id="icon-Vector" viewBox="0 0 28 32">
<path  fill="none" stroke="#fd9222" style="stroke: var(--color1, #fd9222)" stroke-linejoin="round" stroke-linecap="round" stroke-miterlimit="4" stroke-width="2.6667" d="M20.301 23.88l-14.185-8.864M10.028 8.599l14.185 8.864M9.297 25.864l11.736-19.25M25.843 14.789c-3.040-1.899-4.234-3.384-2.278-6.592l-9.626-6.015-11.736 19.25 14.186 8.864 9.454-15.507z"></path>
</symbol>

<symbol id="icon-x-close" viewBox="0 0 32 32">
<path fill="none" stroke="#fff" style="stroke: var(--color1, #fff)" stroke-linejoin="round" stroke-linecap="round" stroke-miterlimit="4" stroke-width="2.6667" d="M24 8l-16 16"></path>
<path fill="none" stroke="#fff" style="stroke: var(--color1, #fff)" stroke-linejoin="round" stroke-linecap="round" stroke-miterlimit="4" stroke-width="2.6667" d="M8 8l16 16"></path>

<symbol id="icon-flag-of-ukraine" viewBox="0 0 40 32">
<path fill="#ffd700" style="fill: var(--color1, #ffd700)" d="M40.209 0.495h-39.902v29.695h39.902v-29.695z"></path>
<path fill="#0057b7" style="fill: var(--color2, #0057b7)" d="M0.307 0.495h39.902v14.847h-39.902v-14.847z"></path>

</symbol>
</defs>
</svg>
