<?xml version="1.0" standalone="no"?>
<!DOCTYPE svg PUBLIC "-//W3C//DTD SVG 20010904//EN"
 "http://www.w3.org/TR/2001/REC-SVG-20010904/DTD/svg10.dtd">
<svg version="1.0" xmlns="http://www.w3.org/2000/svg"
 width="928.000000pt" height="928.000000pt" viewBox="0 0 928.000000 928.000000"
 preserveAspectRatio="xMidYMid meet">
<metadata>
Created by potrace 1.14, written by Peter Selinger 2001-2017
</metadata>
<g transform="translate(0.000000,928.000000) scale(0.100000,-0.100000)"
fill="#000000" stroke="none">
<path d="M3483 9256 c-34 -12 -72 -29 -83 -38 -11 -10 -25 -18 -31 -18 -16 0
-3101 -3090 -3137 -3142 -18 -27 -30 -48 -26 -48 3 0 1 -6 -6 -14 -19 -24 -40
-117 -40 -181 0 -61 24 -175 39 -185 10 -7 25 -42 22 -54 -1 -4 556 -567 1238
-1249 l1240 -1240 -26 -26 c-14 -14 -37 -50 -51 -80 -21 -45 -24 -64 -20 -120
3 -40 14 -83 27 -110 30 -58 892 -921 953 -953 34 -18 58 -22 118 -22 85 1
133 18 181 65 l31 30 727 -725 c399 -399 737 -733 751 -743 139 -99 303 -112
458 -37 71 35 124 86 1623 1585 852 852 1549 1553 1549 1559 0 5 4 10 9 10 11
0 68 112 77 150 11 48 13 167 3 211 -13 57 -56 146 -89 183 -14 16 -470 474
-1013 1018 -640 641 -985 993 -980 1001 4 7 21 32 37 56 37 55 56 124 50 182
-8 85 -43 134 -226 315 -145 144 -181 173 -222 187 -98 33 -200 15 -274 -49
l-41 -34 -1223 1225 c-673 674 -1229 1225 -1236 1225 -7 0 -12 4 -12 9 0 5
-15 14 -32 22 -18 7 -35 16 -38 20 -12 17 -129 39 -195 38 -40 -1 -97 -11
-132 -23z m231 -503 c16 -8 295 -282 621 -608 515 -514 648 -655 619 -655 -4
0 -2 -6 3 -12 10 -13 9 -42 -1 -83 -2 -11 -5 -26 -5 -34 -1 -7 -277 -289 -613
-626 -583 -583 -616 -614 -665 -628 -55 -17 -106 -10 -148 19 -22 15 -1055
1044 -1161 1157 -36 37 -62 72 -59 77 4 6 2 10 -2 10 -8 0 -14 24 -15 65 -1
34 10 73 26 97 14 19 1120 1132 1189 1197 31 28 109 50 152 44 16 -3 43 -12
59 -20z m-1604 -1634 c31 -21 1185 -1176 1204 -1204 32 -48 35 -119 7 -185
-10 -25 -45 -70 -54 -70 -3 0 -127 -121 -127 -125 0 -5 -462 -461 -470 -463
-5 -2 -10 -9 -11 -15 -1 -7 -36 -43 -79 -82 -43 -38 -78 -73 -79 -76 -2 -13
-390 -392 -417 -407 -34 -20 -93 -21 -148 -2 -32 10 -158 132 -637 610 -328
328 -605 612 -614 630 -22 43 -25 85 -9 140 12 39 80 111 611 643 329 329 612
606 628 614 64 35 140 31 195 -8z m3327 -90 c20 -12 166 -150 324 -308 l287
-288 -93 -92 c-51 -52 -98 -92 -105 -89 -6 2 -121 113 -255 248 l-244 244
-510 -512 c-281 -281 -511 -515 -511 -520 0 -5 111 -119 246 -254 l247 -246
-97 -98 -96 -98 -290 290 c-159 159 -297 303 -305 321 -8 18 -17 49 -19 70 -7
89 -15 80 622 718 328 329 613 606 632 616 47 26 119 25 167 -2z m1254 -653
c68 -69 85 -91 76 -101 -7 -6 -20 -23 -29 -36 -10 -13 -49 -67 -88 -119 -39
-52 -78 -106 -88 -119 -85 -116 -377 -511 -392 -531 -10 -14 -43 -57 -72 -97
-200 -272 -234 -318 -243 -327 -6 -6 -20 -27 -32 -46 -12 -19 -30 -44 -40 -55
-10 -11 -29 -36 -43 -55 -13 -19 -64 -88 -112 -153 -48 -64 -88 -120 -88 -122
0 -3 -9 -16 -21 -28 -11 -12 -76 -98 -145 -192 -68 -93 -131 -178 -139 -188
-8 -9 -15 -21 -15 -26 0 -5 -3 -11 -8 -13 -4 -1 -52 -64 -106 -138 -55 -74
-103 -139 -108 -145 -4 -5 -51 -68 -103 -140 -52 -71 -99 -135 -103 -141 -5
-5 -78 -104 -163 -220 -85 -115 -159 -216 -166 -224 -7 -8 -37 -49 -67 -90
-30 -41 -59 -79 -63 -85 -5 -5 -26 -35 -48 -65 -22 -30 -105 -143 -185 -250
-80 -107 -153 -208 -163 -224 -10 -16 -24 -34 -30 -41 -16 -17 -40 -48 -52
-68 -31 -50 -151 -206 -160 -207 -5 0 -177 167 -382 372 l-372 372 1812 1812
c1722 1721 1813 1810 1831 1795 10 -9 58 -56 107 -105z m-2891 -958 c8 0 152
-137 320 -304 l305 -303 -98 -97 -99 -96 -246 246 c-135 135 -249 246 -254
246 -4 0 -238 -230 -520 -510 l-512 -510 245 -245 c134 -134 245 -249 247
-255 4 -10 -171 -190 -184 -190 -15 0 -566 557 -590 596 -27 46 -34 116 -15
152 6 12 9 22 6 22 -2 0 3 9 13 21 39 48 1197 1201 1216 1211 38 20 71 27 111
22 22 -3 47 -5 55 -6z"/>
</g>
</svg>
